<mxfile host="65bd71144e">
    <diagram id="86OEjIF5bJoOTHSKxxui" name="Page-1">
        <mxGraphModel dx="2181" dy="2943" grid="1" gridSize="10" guides="1" tooltips="1" connect="1" arrows="1" fold="1" page="1" pageScale="1" pageWidth="850" pageHeight="1100" math="0" shadow="0">
            <root>
                <mxCell id="0"/>
                <mxCell id="1" parent="0"/>
                <mxCell id="67" value="" style="whiteSpace=wrap;html=1;aspect=fixed;" vertex="1" parent="1">
                    <mxGeometry x="-130" y="-47" width="960" height="960" as="geometry"/>
                </mxCell>
                <mxCell id="7" value="" style="group" parent="1" vertex="1" connectable="0">
                    <mxGeometry x="350" y="52.22" width="115.55555555555554" height="115.55555555555554" as="geometry"/>
                </mxCell>
                <mxCell id="3" value="gửi phiếu" style="ellipse;whiteSpace=wrap;html=1;aspect=fixed;" parent="7" vertex="1">
                    <mxGeometry width="115.55555555555556" height="115.55555555555556" as="geometry"/>
                </mxCell>
                <mxCell id="4" value="" style="endArrow=none;html=1;" parent="7" edge="1">
                    <mxGeometry width="50" height="50" relative="1" as="geometry">
                        <mxPoint x="2.2799999999999727" y="40" as="sourcePoint"/>
                        <mxPoint x="113.27999999999997" y="40" as="targetPoint"/>
                    </mxGeometry>
                </mxCell>
                <mxCell id="6" value="1" style="text;strokeColor=none;fillColor=none;align=center;verticalAlign=middle;spacingLeft=4;spacingRight=4;overflow=hidden;points=[[0,0.5],[1,0.5]];portConstraint=eastwest;rotatable=0;whiteSpace=wrap;html=1;" parent="7" vertex="1">
                    <mxGeometry x="13.330000000000041" width="88.88888888888889" height="33.75" as="geometry"/>
                </mxCell>
                <mxCell id="9" style="edgeStyle=none;html=1;entryX=0;entryY=0.5;entryDx=0;entryDy=0;" parent="1" source="8" target="3" edge="1">
                    <mxGeometry relative="1" as="geometry"/>
                </mxCell>
                <mxCell id="8" value="Sinh Viên" style="rounded=0;whiteSpace=wrap;html=1;" parent="1" vertex="1">
                    <mxGeometry x="120" y="80" width="120" height="60" as="geometry"/>
                </mxCell>
                <mxCell id="20" style="edgeStyle=none;html=1;exitX=0.5;exitY=1;exitDx=0;exitDy=0;" parent="1" source="10" target="19" edge="1">
                    <mxGeometry relative="1" as="geometry"/>
                </mxCell>
                <mxCell id="10" value="phiếu đăng ký" style="shape=partialRectangle;whiteSpace=wrap;html=1;left=0;right=0;fillColor=none;" parent="1" vertex="1">
                    <mxGeometry x="347.78" y="260" width="120" height="40" as="geometry"/>
                </mxCell>
                <mxCell id="14" value="(1)" style="text;html=1;align=center;verticalAlign=middle;whiteSpace=wrap;rounded=0;" parent="1" vertex="1">
                    <mxGeometry x="270" y="80" width="60" height="30" as="geometry"/>
                </mxCell>
                <mxCell id="16" value="" style="group" parent="1" vertex="1" connectable="0">
                    <mxGeometry x="350" y="390" width="115.55555555555554" height="115.55555555555554" as="geometry"/>
                </mxCell>
                <mxCell id="17" value="&amp;nbsp;kiểm tra các lớp học" style="ellipse;whiteSpace=wrap;html=1;aspect=fixed;" parent="16" vertex="1">
                    <mxGeometry width="115.55555555555556" height="115.55555555555556" as="geometry"/>
                </mxCell>
                <mxCell id="18" value="" style="endArrow=none;html=1;" parent="16" edge="1">
                    <mxGeometry width="50" height="50" relative="1" as="geometry">
                        <mxPoint x="2.2799999999999727" y="40" as="sourcePoint"/>
                        <mxPoint x="113.27999999999997" y="40" as="targetPoint"/>
                    </mxGeometry>
                </mxCell>
                <mxCell id="19" value="2" style="text;strokeColor=none;fillColor=none;align=center;verticalAlign=middle;spacingLeft=4;spacingRight=4;overflow=hidden;points=[[0,0.5],[1,0.5]];portConstraint=eastwest;rotatable=0;whiteSpace=wrap;html=1;" parent="16" vertex="1">
                    <mxGeometry x="13.330000000000041" width="88.88888888888889" height="33.75" as="geometry"/>
                </mxCell>
                <mxCell id="28" style="edgeStyle=none;html=1;exitX=1;exitY=0.5;exitDx=0;exitDy=0;entryX=0.5;entryY=1;entryDx=0;entryDy=0;" parent="1" source="22" target="25" edge="1">
                    <mxGeometry relative="1" as="geometry"/>
                </mxCell>
                <mxCell id="47" style="edgeStyle=none;html=1;exitX=0.5;exitY=0;exitDx=0;exitDy=0;entryX=0.5;entryY=1;entryDx=0;entryDy=0;" parent="1" source="22" target="17" edge="1">
                    <mxGeometry relative="1" as="geometry"/>
                </mxCell>
                <mxCell id="22" value="Danh sách lớp" style="shape=partialRectangle;whiteSpace=wrap;html=1;left=0;right=0;fillColor=none;" parent="1" vertex="1">
                    <mxGeometry x="347.78" y="560" width="120" height="40" as="geometry"/>
                </mxCell>
                <mxCell id="24" value="" style="group" parent="1" vertex="1" connectable="0">
                    <mxGeometry x="640" y="222.22" width="115.55555555555554" height="115.55555555555554" as="geometry"/>
                </mxCell>
                <mxCell id="25" value="tra cứu các lớp học được ĐK" style="ellipse;whiteSpace=wrap;html=1;aspect=fixed;" parent="24" vertex="1">
                    <mxGeometry width="115.55555555555556" height="115.55555555555556" as="geometry"/>
                </mxCell>
                <mxCell id="26" value="" style="endArrow=none;html=1;" parent="24" edge="1">
                    <mxGeometry width="50" height="50" relative="1" as="geometry">
                        <mxPoint x="2.2799999999999727" y="40" as="sourcePoint"/>
                        <mxPoint x="113.27999999999997" y="40" as="targetPoint"/>
                    </mxGeometry>
                </mxCell>
                <mxCell id="27" value="3" style="text;strokeColor=none;fillColor=none;align=center;verticalAlign=middle;spacingLeft=4;spacingRight=4;overflow=hidden;points=[[0,0.5],[1,0.5]];portConstraint=eastwest;rotatable=0;whiteSpace=wrap;html=1;" parent="24" vertex="1">
                    <mxGeometry x="13.330000000000041" width="88.88888888888889" height="33.75" as="geometry"/>
                </mxCell>
                <mxCell id="29" style="edgeStyle=none;html=1;exitX=1;exitY=0.5;exitDx=0;exitDy=0;entryX=0;entryY=1;entryDx=0;entryDy=0;" parent="1" source="17" target="25" edge="1">
                    <mxGeometry relative="1" as="geometry"/>
                </mxCell>
                <mxCell id="31" value="" style="group" parent="1" vertex="1" connectable="0">
                    <mxGeometry x="80" y="390" width="115.55555555555554" height="115.55555555555554" as="geometry"/>
                </mxCell>
                <mxCell id="32" value="kiểm tra phiếu đăng ký" style="ellipse;whiteSpace=wrap;html=1;aspect=fixed;" parent="31" vertex="1">
                    <mxGeometry width="115.55555555555556" height="115.55555555555556" as="geometry"/>
                </mxCell>
                <mxCell id="33" value="" style="endArrow=none;html=1;" parent="31" edge="1">
                    <mxGeometry width="50" height="50" relative="1" as="geometry">
                        <mxPoint x="2.2799999999999727" y="40" as="sourcePoint"/>
                        <mxPoint x="113.27999999999997" y="40" as="targetPoint"/>
                    </mxGeometry>
                </mxCell>
                <mxCell id="34" value="4" style="text;strokeColor=none;fillColor=none;align=center;verticalAlign=middle;spacingLeft=4;spacingRight=4;overflow=hidden;points=[[0,0.5],[1,0.5]];portConstraint=eastwest;rotatable=0;whiteSpace=wrap;html=1;" parent="31" vertex="1">
                    <mxGeometry x="13.330000000000041" width="88.88888888888889" height="33.75" as="geometry"/>
                </mxCell>
                <mxCell id="35" style="edgeStyle=none;html=1;exitX=0;exitY=0.5;exitDx=0;exitDy=0;entryX=1;entryY=0.5;entryDx=0;entryDy=0;" parent="1" source="17" target="32" edge="1">
                    <mxGeometry relative="1" as="geometry"/>
                </mxCell>
                <mxCell id="37" style="edgeStyle=none;html=1;exitX=0.511;exitY=0.216;exitDx=0;exitDy=0;entryX=0.5;entryY=1;entryDx=0;entryDy=0;exitPerimeter=0;" parent="1" source="34" target="8" edge="1">
                    <mxGeometry relative="1" as="geometry"/>
                </mxCell>
                <mxCell id="39" value="hồ sơ sinh viên" style="shape=partialRectangle;whiteSpace=wrap;html=1;left=0;right=0;fillColor=none;" parent="1" vertex="1">
                    <mxGeometry x="410" y="740" width="120" height="40" as="geometry"/>
                </mxCell>
                <mxCell id="42" value="" style="curved=1;endArrow=classic;html=1;entryX=1;entryY=0.5;entryDx=0;entryDy=0;exitX=1;exitY=1;exitDx=0;exitDy=0;" parent="1" source="25" target="39" edge="1">
                    <mxGeometry width="50" height="50" relative="1" as="geometry">
                        <mxPoint x="660" y="730" as="sourcePoint"/>
                        <mxPoint x="750" y="430" as="targetPoint"/>
                        <Array as="points">
                            <mxPoint x="680" y="610"/>
                        </Array>
                    </mxGeometry>
                </mxCell>
                <mxCell id="43" value="" style="curved=1;endArrow=classic;html=1;exitX=0;exitY=0.5;exitDx=0;exitDy=0;entryX=1;entryY=1;entryDx=0;entryDy=0;" parent="1" source="39" target="57" edge="1">
                    <mxGeometry width="50" height="50" relative="1" as="geometry">
                        <mxPoint x="150" y="720" as="sourcePoint"/>
                        <mxPoint x="110" y="610" as="targetPoint"/>
                        <Array as="points">
                            <mxPoint x="200" y="720"/>
                        </Array>
                    </mxGeometry>
                </mxCell>
                <mxCell id="45" value="" style="edgeStyle=none;html=1;exitX=0.5;exitY=1;exitDx=0;exitDy=0;entryX=0.5;entryY=0;entryDx=0;entryDy=0;" parent="1" source="3" target="10" edge="1">
                    <mxGeometry relative="1" as="geometry">
                        <mxPoint x="408" y="168" as="sourcePoint"/>
                        <mxPoint x="408" y="260" as="targetPoint"/>
                    </mxGeometry>
                </mxCell>
                <mxCell id="21" value="&lt;div&gt;&lt;font color=&quot;#000000&quot;&gt;họ tên, số chứng minh thư và mã số&amp;nbsp;&lt;/font&gt;&lt;/div&gt;&lt;div&gt;&lt;font color=&quot;#000000&quot;&gt;của những lớp học&lt;/font&gt;&lt;/div&gt;" style="text;html=1;align=center;verticalAlign=middle;whiteSpace=wrap;rounded=0;" parent="1" vertex="1">
                    <mxGeometry x="300" y="190" width="110" height="52.22" as="geometry"/>
                </mxCell>
                <mxCell id="48" value="phiếu đăng ký" style="text;html=1;align=center;verticalAlign=middle;resizable=0;points=[];autosize=1;strokeColor=none;fillColor=none;" parent="1" vertex="1">
                    <mxGeometry x="310" y="320" width="100" height="30" as="geometry"/>
                </mxCell>
                <mxCell id="50" value="lớp của sv&amp;nbsp; ĐK" style="text;html=1;align=center;verticalAlign=middle;resizable=0;points=[];autosize=1;strokeColor=none;fillColor=none;rotation=-30;" parent="1" vertex="1">
                    <mxGeometry x="506" y="358" width="100" height="30" as="geometry"/>
                </mxCell>
                <mxCell id="51" value="các lớp còn chổ&amp;nbsp;" style="text;html=1;align=center;verticalAlign=middle;resizable=0;points=[];autosize=1;strokeColor=none;fillColor=none;rotation=-45;" parent="1" vertex="1">
                    <mxGeometry x="520" y="430" width="110" height="30" as="geometry"/>
                </mxCell>
                <mxCell id="52" value="thông tin các lớp" style="text;html=1;align=center;verticalAlign=middle;resizable=0;points=[];autosize=1;strokeColor=none;fillColor=none;" parent="1" vertex="1">
                    <mxGeometry x="300" y="520" width="110" height="30" as="geometry"/>
                </mxCell>
                <mxCell id="53" value="các lớp đã hết chỗ" style="text;html=1;align=center;verticalAlign=middle;resizable=0;points=[];autosize=1;strokeColor=none;fillColor=none;" parent="1" vertex="1">
                    <mxGeometry x="210" y="418" width="120" height="30" as="geometry"/>
                </mxCell>
                <mxCell id="55" value="thông tin sinh viên" style="text;html=1;align=center;verticalAlign=middle;resizable=0;points=[];autosize=1;strokeColor=none;fillColor=none;rotation=-75;" parent="1" vertex="1">
                    <mxGeometry x="602" y="512.56" width="120" height="30" as="geometry"/>
                </mxCell>
                <mxCell id="56" value="" style="group" parent="1" vertex="1" connectable="0">
                    <mxGeometry x="-10" y="512.56" width="115.55555555555554" height="115.55555555555554" as="geometry"/>
                </mxCell>
                <mxCell id="57" value="Thông báo các lớp đã ĐK" style="ellipse;whiteSpace=wrap;html=1;aspect=fixed;" parent="56" vertex="1">
                    <mxGeometry width="115.55555555555556" height="115.55555555555556" as="geometry"/>
                </mxCell>
                <mxCell id="58" value="" style="endArrow=none;html=1;" parent="56" edge="1">
                    <mxGeometry width="50" height="50" relative="1" as="geometry">
                        <mxPoint x="2.2799999999999727" y="40" as="sourcePoint"/>
                        <mxPoint x="113.27999999999997" y="40" as="targetPoint"/>
                    </mxGeometry>
                </mxCell>
                <mxCell id="59" value="2" style="text;strokeColor=none;fillColor=none;align=center;verticalAlign=middle;spacingLeft=4;spacingRight=4;overflow=hidden;points=[[0,0.5],[1,0.5]];portConstraint=eastwest;rotatable=0;whiteSpace=wrap;html=1;" parent="56" vertex="1">
                    <mxGeometry x="13.330000000000041" width="88.88888888888889" height="33.75" as="geometry"/>
                </mxCell>
                <mxCell id="61" value="các lớp đã hết chỗ" style="text;html=1;align=center;verticalAlign=middle;resizable=0;points=[];autosize=1;strokeColor=none;fillColor=none;" parent="1" vertex="1">
                    <mxGeometry x="150" y="260" width="120" height="30" as="geometry"/>
                </mxCell>
                <mxCell id="62" value="thông tin sinh viên" style="text;html=1;align=center;verticalAlign=middle;resizable=0;points=[];autosize=1;strokeColor=none;fillColor=none;rotation=30;" parent="1" vertex="1">
                    <mxGeometry x="180" y="670" width="120" height="30" as="geometry"/>
                </mxCell>
                <mxCell id="63" value="" style="curved=1;endArrow=classic;html=1;exitX=0;exitY=0.5;exitDx=0;exitDy=0;entryX=0;entryY=0.5;entryDx=0;entryDy=0;" parent="1" source="59" target="8" edge="1">
                    <mxGeometry width="50" height="50" relative="1" as="geometry">
                        <mxPoint x="-90" y="340" as="sourcePoint"/>
                        <mxPoint x="-40" y="290" as="targetPoint"/>
                        <Array as="points">
                            <mxPoint x="-90" y="290"/>
                        </Array>
                    </mxGeometry>
                </mxCell>
                <mxCell id="64" value="" style="curved=1;endArrow=classic;html=1;entryX=0.965;entryY=0.398;entryDx=0;entryDy=0;entryPerimeter=0;exitX=0.027;exitY=0.738;exitDx=0;exitDy=0;exitPerimeter=0;" parent="1" source="17" target="57" edge="1">
                    <mxGeometry width="50" height="50" relative="1" as="geometry">
                        <mxPoint x="220" y="480" as="sourcePoint"/>
                        <mxPoint x="380" y="420" as="targetPoint"/>
                        <Array as="points">
                            <mxPoint x="260" y="540"/>
                        </Array>
                    </mxGeometry>
                </mxCell>
                <mxCell id="65" value="các lớp còn chổ&amp;nbsp;" style="text;html=1;align=center;verticalAlign=middle;resizable=0;points=[];autosize=1;strokeColor=none;fillColor=none;rotation=-15;" parent="1" vertex="1">
                    <mxGeometry x="190" y="500" width="110" height="30" as="geometry"/>
                </mxCell>
                <mxCell id="66" value="danh sách những lớp học&amp;nbsp;" style="text;html=1;align=center;verticalAlign=middle;resizable=0;points=[];autosize=1;strokeColor=none;fillColor=none;rotation=-70;" parent="1" vertex="1">
                    <mxGeometry x="-110" y="265" width="160" height="30" as="geometry"/>
                </mxCell>
            </root>
        </mxGraphModel>
    </diagram>
</mxfile>